<svg width="3000" height="1500" viewBox="0 0 3000 1500" fill="none" xmlns="http://www.w3.org/2000/svg">
<rect x="2.5" y="2.5" width="2995" height="1495" rx="395.5" fill="white" stroke="black" stroke-width="5"/>
<path d="M737.288 538H779.661V961.729H737.288V538Z" fill="black"/>
<path d="M741.25 555.907L779.661 538L958.729 922.028L920.326 939.936L741.25 555.907Z" fill="black"/>
<path d="M1149.37 538H1107V961.729H1149.37V538Z" fill="black"/>
<path d="M1145.41 555.907L1107 538L927.974 922.028L920.326 939.936L966.368 939.935L1145.41 555.907Z" fill="black"/>
<path d="M1457.71 538H1500.09V961.729H1457.71V538Z" fill="black"/>
<path d="M1291.5 834.61V792.237H1474V834.61H1291.5Z" fill="black"/>
<path d="M1457.71 538L1492.42 562.304L1212.74 961.729H1161.02L1457.71 538Z" fill="black"/>
<path d="M1521.19 538H1563.56V961.729H1521.19V538Z" fill="black"/>
<path d="M1521.19 961.729V919.356H1775.42V961.729H1521.19Z" fill="black"/>
<path d="M2495.76 538H2538.14V961.729H2495.76V538Z" fill="black"/>
<path d="M2495.76 961.729V919.356H2750V961.729H2495.76Z" fill="black"/>
<path d="M1923.73 792.237V749.864H2135.59V792.237H1923.73Z" fill="black"/>
<path d="M1944.91 961.729C2061.92 961.729 2156.78 866.874 2156.78 749.864H2114.41C2114.41 843.472 2038.52 919.356 1944.91 919.356C1851.31 919.356 1775.42 843.472 1775.42 749.864C1775.42 656.257 1851.31 580.373 1944.91 580.373C2008.73 580.373 2064.31 615.639 2093.22 667.746L2128.44 643.932C2091.8 580.606 2023.33 538 1944.91 538C1827.91 538 1733.05 632.855 1733.05 749.864C1733.05 866.874 1827.91 961.729 1944.91 961.729Z" fill="black"/>
<path d="M2177.97 538H2220.34V961.729H2177.97V538Z" fill="black"/>
<path fill-rule="evenodd" clip-rule="evenodd" d="M2326.27 834.61C2408.18 834.61 2474.58 768.211 2474.58 686.305C2474.58 604.399 2408.18 538 2326.27 538C2257.16 538 2177.97 538 2177.97 538C2177.97 538 2177.97 673.506 2177.97 686.305C2177.97 740.579 2177.97 834.61 2177.97 834.61C2177.97 834.61 2298.64 834.61 2326.27 834.61ZM2326.27 792.237C2384.77 792.237 2432.2 744.811 2432.2 686.305C2432.2 627.799 2384.77 580.373 2326.27 580.373C2280.81 580.373 2220.34 580.373 2220.34 580.373C2220.34 580.373 2220.34 673.265 2220.34 686.305C2220.34 715.177 2220.34 792.237 2220.34 792.237C2220.34 792.237 2296.64 792.237 2326.27 792.237Z" fill="black"/>
<path d="M496.629 550.681C485.934 538 460.204 538 398.305 538C316.398 538 250 604.398 250 686.305V813.424C250 867.371 278.805 914.591 321.873 940.542C332.439 945.839 355.932 951.136 355.932 940.542C355.932 928.841 365.418 919.356 377.119 919.356H546.61C558.311 919.356 567.797 928.841 567.797 940.542C567.797 951.136 593.117 945.808 601.856 940.542C644.924 914.591 673.729 867.371 673.729 813.424C673.729 751.525 673.729 725.795 661.048 715.1C652.028 707.492 636.59 707.492 610.17 707.492C551.665 707.492 504.237 660.064 504.237 601.559C504.237 575.139 504.237 559.701 496.629 550.681Z" fill="url(#paint0_angular_0_1)"/>
<path d="M496.629 550.681C485.934 538 460.204 538 398.305 538C316.398 538 250 604.398 250 686.305V813.424C250 867.371 278.805 914.591 321.873 940.542C332.439 945.839 355.932 951.136 355.932 940.542C355.932 928.841 365.418 919.356 377.119 919.356H546.61C558.311 919.356 567.797 928.841 567.797 940.542C567.797 951.136 593.117 945.808 601.856 940.542C644.924 914.591 673.729 867.371 673.729 813.424C673.729 751.525 673.729 725.795 661.048 715.1C652.028 707.492 636.59 707.492 610.17 707.492C551.665 707.492 504.237 660.064 504.237 601.559C504.237 575.139 504.237 559.701 496.629 550.681Z" fill="url(#paint1_angular_0_1)"/>
<path d="M496.629 550.681C485.934 538 460.204 538 398.305 538C316.398 538 250 604.398 250 686.305V813.424C250 867.371 278.805 914.591 321.873 940.542C332.439 945.839 355.932 951.136 355.932 940.542C355.932 928.841 365.418 919.356 377.119 919.356H546.61C558.311 919.356 567.797 928.841 567.797 940.542C567.797 951.136 593.117 945.808 601.856 940.542C644.924 914.591 673.729 867.371 673.729 813.424C673.729 751.525 673.729 725.795 661.048 715.1C652.028 707.492 636.59 707.492 610.17 707.492C551.665 707.492 504.237 660.064 504.237 601.559C504.237 575.139 504.237 559.701 496.629 550.681Z" fill="url(#paint2_angular_0_1)"/>
<defs>
<radialGradient id="paint0_angular_0_1" cx="0" cy="0" r="1" gradientUnits="userSpaceOnUse" gradientTransform="translate(483.051 855.797) rotate(-53.427) scale(408.904 62.6875)">
<stop/>
<stop offset="1" stop-color="#666666"/>
</radialGradient>
<radialGradient id="paint1_angular_0_1" cx="0" cy="0" r="1" gradientUnits="userSpaceOnUse" gradientTransform="translate(483.051 855.797) rotate(-73.6105) scale(375.425 57.555)">
<stop stop-color="#061F60" stop-opacity="0.53"/>
<stop offset="1" stop-color="#07062F" stop-opacity="0.3"/>
</radialGradient>
<radialGradient id="paint2_angular_0_1" cx="0" cy="0" r="1" gradientUnits="userSpaceOnUse" gradientTransform="translate(483.051 855.797) rotate(-97.7652) scale(470.415 72.1176)">
<stop stop-color="#061F60" stop-opacity="0.53"/>
<stop offset="1" stop-color="#07062F" stop-opacity="0"/>
</radialGradient>
</defs>
</svg>
